<svg height="100%" viewBox="0 0 2500 2500" enable-background="new 0 0 0 0" fill="none" xmlns="http://www.w3.org/2000/svg">
<mask id="path-1-outside-1_460_22" maskUnits="userSpaceOnUse" x="1408.66" y="409" width="525" height="730" fill="black">
<rect fill="white" x="1408.66" y="409" width="525" height="730"/>
<path d="M1410.42 1138V410.727H1656.16C1712.98 410.727 1759.61 420.434 1796.07 439.847C1832.53 459.023 1859.52 485.419 1877.04 519.037C1894.56 552.654 1903.32 590.888 1903.32 633.739C1903.32 676.589 1894.56 714.586 1877.04 747.73C1859.52 780.874 1832.65 806.916 1796.43 825.855C1760.21 844.558 1713.92 853.909 1657.58 853.909H1458.71V774.364H1654.74C1693.56 774.364 1724.81 768.682 1748.49 757.318C1772.4 745.955 1789.68 729.856 1800.33 709.023C1811.22 687.953 1816.67 662.858 1816.67 633.739C1816.67 604.619 1811.22 579.169 1800.33 557.389C1789.44 535.609 1772.04 518.8 1748.13 506.963C1724.22 494.889 1692.62 488.852 1653.32 488.852H1498.49V1138H1410.42ZM1752.75 811.295L1931.73 1138H1829.45L1653.32 811.295H1752.75Z"/>
</mask>
<path d="M1410.42 1138V410.727H1656.16C1712.98 410.727 1759.61 420.434 1796.07 439.847C1832.53 459.023 1859.52 485.419 1877.04 519.037C1894.56 552.654 1903.32 590.888 1903.32 633.739C1903.32 676.589 1894.56 714.586 1877.04 747.73C1859.52 780.874 1832.65 806.916 1796.43 825.855C1760.21 844.558 1713.92 853.909 1657.58 853.909H1458.71V774.364H1654.74C1693.56 774.364 1724.81 768.682 1748.49 757.318C1772.4 745.955 1789.68 729.856 1800.33 709.023C1811.22 687.953 1816.67 662.858 1816.67 633.739C1816.67 604.619 1811.22 579.169 1800.33 557.389C1789.44 535.609 1772.04 518.8 1748.13 506.963C1724.22 494.889 1692.62 488.852 1653.32 488.852H1498.49V1138H1410.42ZM1752.75 811.295L1931.73 1138H1829.45L1653.32 811.295H1752.75Z" fill="white"/>
<path d="M1410.42 1138H1409.42V1139H1410.42V1138ZM1410.42 410.727V409.727H1409.42V410.727H1410.42ZM1796.07 439.847L1795.6 440.729L1795.61 440.732L1796.07 439.847ZM1877.04 519.037L1876.15 519.499L1876.15 519.499L1877.04 519.037ZM1877.04 747.73L1876.15 747.263L1876.15 747.263L1877.04 747.73ZM1796.43 825.855L1796.89 826.744L1796.89 826.741L1796.43 825.855ZM1458.71 853.909H1457.71V854.909H1458.71V853.909ZM1458.71 774.364V773.364H1457.71V774.364H1458.71ZM1748.49 757.318L1748.06 756.415L1748.05 756.417L1748.49 757.318ZM1800.33 709.023L1799.45 708.564L1799.44 708.567L1800.33 709.023ZM1748.13 506.963L1747.68 507.856L1747.69 507.859L1748.13 506.963ZM1498.49 488.852V487.852H1497.49V488.852H1498.49ZM1498.49 1138V1139H1499.49V1138H1498.49ZM1752.75 811.295L1753.63 810.815L1753.34 810.295H1752.75V811.295ZM1931.73 1138V1139H1933.41L1932.6 1137.52L1931.73 1138ZM1829.45 1138L1828.57 1138.47L1828.86 1139H1829.45V1138ZM1653.32 811.295V810.295H1651.64L1652.44 811.77L1653.32 811.295ZM1411.42 1138V410.727H1409.42V1138H1411.42ZM1410.42 411.727H1656.16V409.727H1410.42V411.727ZM1656.16 411.727C1712.87 411.727 1759.33 421.417 1795.6 440.729L1796.54 438.964C1759.9 419.451 1713.08 409.727 1656.16 409.727V411.727ZM1795.61 440.732C1831.9 459.822 1858.73 486.078 1876.15 519.499L1877.93 518.575C1860.3 484.761 1833.16 458.224 1796.54 438.962L1795.61 440.732ZM1876.15 519.499C1893.59 552.956 1902.32 591.028 1902.32 633.739H1904.32C1904.32 590.749 1895.53 552.353 1877.93 518.575L1876.15 519.499ZM1902.32 633.739C1902.32 676.45 1893.59 714.282 1876.15 747.263L1877.92 748.197C1895.53 714.89 1904.32 676.728 1904.32 633.739H1902.32ZM1876.15 747.263C1858.74 780.212 1832.02 806.114 1795.96 824.969L1796.89 826.741C1833.27 807.717 1860.3 781.537 1877.92 748.197L1876.15 747.263ZM1795.97 824.967C1759.93 843.573 1713.82 852.909 1657.58 852.909V854.909C1714.02 854.909 1760.48 845.542 1796.89 826.744L1795.97 824.967ZM1657.58 852.909H1458.71V854.909H1657.58V852.909ZM1459.71 853.909V774.364H1457.71V853.909H1459.71ZM1458.71 775.364H1654.74V773.364H1458.71V775.364ZM1654.74 775.364C1693.65 775.364 1725.06 769.672 1748.92 758.22L1748.05 756.417C1724.56 767.692 1693.48 773.364 1654.74 773.364V775.364ZM1748.92 758.221C1773 746.776 1790.46 730.533 1801.22 709.478L1799.44 708.567C1788.9 729.179 1771.8 745.133 1748.06 756.415L1748.92 758.221ZM1801.22 709.482C1812.2 688.241 1817.67 662.982 1817.67 633.739H1815.67C1815.67 662.734 1810.25 687.664 1799.45 708.564L1801.22 709.482ZM1817.67 633.739C1817.67 604.494 1812.2 578.886 1801.23 556.942L1799.44 557.836C1810.25 579.453 1815.67 604.744 1815.67 633.739H1817.67ZM1801.23 556.942C1790.23 534.948 1772.66 517.991 1748.58 506.067L1747.69 507.859C1771.42 519.61 1788.66 536.27 1799.44 557.836L1801.23 556.942ZM1748.58 506.07C1724.48 493.901 1692.7 487.852 1653.32 487.852V489.852C1692.53 489.852 1723.96 495.878 1747.68 507.856L1748.58 506.07ZM1653.32 487.852H1498.49V489.852H1653.32V487.852ZM1497.49 488.852V1138H1499.49V488.852H1497.49ZM1498.49 1137H1410.42V1139H1498.49V1137ZM1751.87 811.776L1930.85 1138.48L1932.6 1137.52L1753.63 810.815L1751.87 811.776ZM1931.73 1137H1829.45V1139H1931.73V1137ZM1830.33 1137.53L1654.2 810.821L1652.44 811.77L1828.57 1138.47L1830.33 1137.53ZM1653.32 812.295H1752.75V810.295H1653.32V812.295Z" fill="white" mask="url(#path-1-outside-1_460_22)"/>
<mask id="path-3-outside-2_460_22" maskUnits="userSpaceOnUse" x="505.55" y="1350" width="617" height="750" fill="black">
<rect fill="white" x="505.55" y="1350" width="617" height="750"/>
<path d="M1120.63 1589H1032.56C1027.35 1563.67 1018.24 1541.41 1005.21 1522.24C992.431 1503.06 976.806 1486.96 958.34 1473.94C940.111 1460.69 919.869 1450.74 897.615 1444.11C875.362 1437.48 852.161 1434.17 828.013 1434.17C783.979 1434.17 744.088 1445.3 708.34 1467.55C672.828 1489.8 644.538 1522.59 623.468 1565.92C602.634 1609.24 592.218 1662.39 592.218 1725.36C592.218 1788.34 602.634 1841.49 623.468 1884.81C644.538 1928.13 672.828 1960.92 708.34 1983.18C744.088 2005.43 783.979 2016.56 828.013 2016.56C852.161 2016.56 875.362 2013.24 897.615 2006.61C919.869 1999.98 940.111 1990.16 958.34 1977.14C976.806 1963.88 992.431 1947.66 1005.21 1928.49C1018.24 1909.08 1027.35 1886.82 1032.56 1861.73H1120.63C1114 1898.9 1101.92 1932.16 1084.41 1961.51C1066.89 1990.87 1045.11 2015.85 1019.06 2036.44C993.023 2056.8 963.785 2072.31 931.351 2082.96C899.154 2093.62 864.708 2098.94 828.013 2098.94C765.987 2098.94 710.826 2083.79 662.53 2053.49C614.235 2023.19 576.238 1980.1 548.539 1924.23C520.84 1868.36 506.99 1802.07 506.99 1725.36C506.99 1648.66 520.84 1582.37 548.539 1526.5C576.238 1470.63 614.235 1427.54 662.53 1397.24C710.826 1366.94 765.987 1351.78 828.013 1351.78C864.708 1351.78 899.154 1357.11 931.351 1367.76C963.785 1378.42 993.023 1394.04 1019.06 1414.64C1045.11 1435 1066.89 1459.86 1084.41 1489.21C1101.92 1518.33 1114 1551.59 1120.63 1589Z"/>
</mask>
<path d="M1120.63 1589H1032.56C1027.35 1563.67 1018.24 1541.41 1005.21 1522.24C992.431 1503.06 976.806 1486.96 958.34 1473.94C940.111 1460.69 919.869 1450.74 897.615 1444.11C875.362 1437.48 852.161 1434.17 828.013 1434.17C783.979 1434.17 744.088 1445.3 708.34 1467.55C672.828 1489.8 644.538 1522.59 623.468 1565.92C602.634 1609.24 592.218 1662.39 592.218 1725.36C592.218 1788.34 602.634 1841.49 623.468 1884.81C644.538 1928.13 672.828 1960.92 708.34 1983.18C744.088 2005.43 783.979 2016.56 828.013 2016.56C852.161 2016.56 875.362 2013.24 897.615 2006.61C919.869 1999.98 940.111 1990.16 958.34 1977.14C976.806 1963.88 992.431 1947.66 1005.21 1928.49C1018.24 1909.08 1027.35 1886.82 1032.56 1861.73H1120.63C1114 1898.9 1101.92 1932.16 1084.41 1961.51C1066.89 1990.87 1045.11 2015.85 1019.06 2036.44C993.023 2056.8 963.785 2072.31 931.351 2082.96C899.154 2093.62 864.708 2098.94 828.013 2098.94C765.987 2098.94 710.826 2083.79 662.53 2053.49C614.235 2023.19 576.238 1980.1 548.539 1924.23C520.84 1868.36 506.99 1802.07 506.99 1725.36C506.99 1648.66 520.84 1582.37 548.539 1526.5C576.238 1470.63 614.235 1427.54 662.53 1397.24C710.826 1366.94 765.987 1351.78 828.013 1351.78C864.708 1351.78 899.154 1357.11 931.351 1367.76C963.785 1378.42 993.023 1394.04 1019.06 1414.64C1045.11 1435 1066.89 1459.86 1084.41 1489.21C1101.92 1518.33 1114 1551.59 1120.63 1589Z" fill="white"/>
<path d="M1120.63 1589V1590H1121.82L1121.61 1588.83L1120.63 1589ZM1032.56 1589L1031.58 1589.2L1031.74 1590H1032.56V1589ZM1005.21 1522.24L1004.38 1522.79L1004.39 1522.8L1005.21 1522.24ZM958.34 1473.94L957.752 1474.75L957.758 1474.76L957.764 1474.76L958.34 1473.94ZM897.615 1444.11L897.33 1445.07L897.33 1445.07L897.615 1444.11ZM708.34 1467.55L707.811 1466.7L707.809 1466.7L708.34 1467.55ZM623.468 1565.92L622.568 1565.48L622.566 1565.48L623.468 1565.92ZM623.468 1884.81L622.566 1885.24L622.568 1885.25L623.468 1884.81ZM708.34 1983.18L707.809 1984.02L707.811 1984.03L708.34 1983.18ZM897.615 2006.61L897.33 2005.66L897.33 2005.66L897.615 2006.61ZM958.34 1977.14L958.921 1977.95L958.923 1977.95L958.34 1977.14ZM1005.21 1928.49L1004.38 1927.93L1004.38 1927.93L1005.21 1928.49ZM1032.56 1861.73V1860.73H1031.74L1031.58 1861.52L1032.56 1861.73ZM1120.63 1861.73L1121.61 1861.9L1121.82 1860.73H1120.63V1861.73ZM1084.41 1961.51L1083.55 1961L1083.55 1961L1084.41 1961.51ZM1019.06 2036.44L1019.68 2037.23L1019.68 2037.23L1019.06 2036.44ZM931.351 2082.96L931.039 2082.01L931.037 2082.01L931.351 2082.96ZM662.53 2053.49L661.999 2054.34L661.999 2054.34L662.53 2053.49ZM548.539 1924.23L549.435 1923.78L549.435 1923.78L548.539 1924.23ZM548.539 1526.5L547.643 1526.06L548.539 1526.5ZM931.351 1367.76L931.037 1368.71L931.039 1368.71L931.351 1367.76ZM1019.06 1414.64L1018.44 1415.42L1018.45 1415.43L1019.06 1414.64ZM1084.41 1489.21L1083.55 1489.73L1083.55 1489.73L1084.41 1489.21ZM1120.63 1588H1032.56V1590H1120.63V1588ZM1033.54 1588.8C1028.31 1563.35 1019.15 1540.97 1006.04 1521.68L1004.39 1522.8C1017.33 1541.86 1026.39 1563.98 1031.58 1589.2L1033.54 1588.8ZM1006.05 1521.68C993.196 1502.41 977.485 1486.22 958.916 1473.13L957.764 1474.76C976.127 1487.71 991.666 1503.72 1004.38 1522.79L1006.05 1521.68ZM958.928 1473.13C940.604 1459.81 920.26 1449.82 897.901 1443.16L897.33 1445.07C919.478 1451.67 939.617 1461.56 957.752 1474.75L958.928 1473.13ZM897.901 1443.16C875.551 1436.5 852.254 1433.17 828.013 1433.17V1435.17C852.068 1435.17 875.172 1438.47 897.33 1445.07L897.901 1443.16ZM828.013 1433.17C783.801 1433.17 743.726 1444.35 707.811 1466.7L708.868 1468.4C744.45 1446.25 784.157 1435.17 828.013 1435.17V1433.17ZM707.809 1466.7C672.116 1489.07 643.708 1522.01 622.568 1565.48L624.367 1566.35C645.368 1523.17 673.541 1490.54 708.871 1468.4L707.809 1466.7ZM622.566 1565.48C601.651 1608.98 591.218 1662.28 591.218 1725.36H593.218C593.218 1662.5 603.618 1609.5 624.369 1566.35L622.566 1565.48ZM591.218 1725.36C591.218 1788.44 601.651 1841.75 622.566 1885.24L624.369 1884.38C603.618 1841.22 593.218 1788.23 593.218 1725.36H591.218ZM622.568 1885.25C643.708 1928.71 672.116 1961.66 707.809 1984.02L708.871 1982.33C673.541 1960.19 645.368 1927.55 624.367 1884.37L622.568 1885.25ZM707.811 1984.03C743.726 2006.38 783.801 2017.56 828.013 2017.56V2015.56C784.157 2015.56 744.45 2004.48 708.868 1982.33L707.811 1984.03ZM828.013 2017.56C852.254 2017.56 875.551 2014.23 897.901 2007.57L897.33 2005.66C875.172 2012.26 852.068 2015.56 828.013 2015.56V2017.56ZM897.901 2007.57C920.257 2000.91 940.599 1991.04 958.921 1977.95L957.759 1976.33C939.623 1989.28 919.482 1999.06 897.33 2005.66L897.901 2007.57ZM958.923 1977.95C977.488 1964.62 993.197 1948.32 1006.05 1929.04L1004.38 1927.93C991.665 1947.01 976.123 1963.14 957.757 1976.33L958.923 1977.95ZM1006.05 1929.05C1019.14 1909.52 1028.31 1887.14 1033.54 1861.93L1031.58 1861.52C1026.39 1886.5 1017.33 1908.64 1004.38 1927.93L1006.05 1929.05ZM1032.56 1862.73H1120.63V1860.73H1032.56V1862.73ZM1119.64 1861.55C1113.03 1898.61 1101 1931.76 1083.55 1961L1085.26 1962.03C1102.85 1932.56 1114.96 1899.18 1121.61 1861.9L1119.64 1861.55ZM1083.55 1961C1066.09 1990.26 1044.39 2015.14 1018.44 2035.66L1019.68 2037.23C1045.82 2016.55 1067.68 1991.48 1085.26 1962.03L1083.55 1961ZM1018.45 2035.66C992.501 2055.94 963.367 2071.39 931.039 2082.01L931.663 2083.91C964.203 2073.22 993.544 2057.66 1019.68 2037.23L1018.45 2035.66ZM931.037 2082.01C898.949 2092.63 864.61 2097.94 828.013 2097.94V2099.94C864.806 2099.94 899.359 2094.6 931.665 2083.91L931.037 2082.01ZM828.013 2097.94C766.158 2097.94 711.184 2082.84 663.062 2052.64L661.999 2054.34C710.467 2084.75 765.816 2099.94 828.013 2099.94V2097.94ZM663.062 2052.64C614.937 2022.45 577.059 1979.5 549.435 1923.78L547.643 1924.67C575.416 1980.69 613.532 2023.93 661.999 2054.34L663.062 2052.64ZM549.435 1923.78C521.818 1868.08 507.99 1801.95 507.99 1725.36H505.99C505.99 1802.19 519.862 1868.63 547.643 1924.67L549.435 1923.78ZM507.99 1725.36C507.99 1648.78 521.818 1582.65 549.435 1526.94L547.643 1526.06C519.862 1582.09 505.99 1648.54 505.99 1725.36H507.99ZM549.435 1526.94C577.059 1471.22 614.937 1428.28 663.062 1398.09L661.999 1396.39C613.532 1426.8 575.416 1470.04 547.643 1526.06L549.435 1526.94ZM663.062 1398.09C711.184 1367.89 766.158 1352.78 828.013 1352.78V1350.78C765.816 1350.78 710.467 1365.98 661.999 1396.39L663.062 1398.09ZM828.013 1352.78C864.61 1352.78 898.949 1358.1 931.037 1368.71L931.665 1366.81C899.359 1356.13 864.806 1350.78 828.013 1350.78V1352.78ZM931.039 1368.71C963.364 1379.33 992.497 1394.9 1018.44 1415.42L1019.68 1413.85C993.548 1393.18 964.206 1377.5 931.663 1366.81L931.039 1368.71ZM1018.45 1415.43C1044.39 1435.71 1066.09 1460.47 1083.55 1489.73L1085.26 1488.7C1067.68 1459.24 1045.82 1434.29 1019.68 1413.85L1018.45 1415.43ZM1083.55 1489.73C1101 1518.73 1113.03 1551.88 1119.64 1589.17L1121.61 1588.83C1114.96 1551.31 1102.85 1517.93 1085.26 1488.7L1083.55 1489.73Z" fill="white" mask="url(#path-3-outside-2_460_22)"/>
<line x1="1262.15" y1="286" x2="1262.15" y2="2213" stroke="white" stroke-width="26"/>
<line x1="371" y1="1244" x2="2128.33" y2="1244" stroke="white" stroke-width="26"/>
<mask id="path-7-outside-3_460_22" maskUnits="userSpaceOnUse" x="558.57" y="409" width="593" height="730" fill="black">
<rect fill="white" x="558.57" y="409" width="593" height="730"/>
<path d="M664.992 410.727L852.492 713.284H858.174L1045.67 410.727H1149.37L920.674 774.364L1149.37 1138H1045.67L858.174 841.125H852.492L664.992 1138H561.299L795.674 774.364L561.299 410.727H664.992Z"/>
</mask>
<path d="M664.992 410.727L852.492 713.284H858.174L1045.67 410.727H1149.37L920.674 774.364L1149.37 1138H1045.67L858.174 841.125H852.492L664.992 1138H561.299L795.674 774.364L561.299 410.727H664.992Z" fill="white"/>
<path d="M664.992 410.727L665.842 410.2L665.549 409.727H664.992V410.727ZM852.492 713.284L851.642 713.811L851.935 714.284H852.492V713.284ZM858.174 713.284V714.284H858.731L859.024 713.811L858.174 713.284ZM1045.67 410.727V409.727H1045.12L1044.82 410.2L1045.67 410.727ZM1149.37 410.727L1150.21 411.26L1151.18 409.727H1149.37V410.727ZM920.674 774.364L919.827 773.831L919.492 774.364L919.827 774.896L920.674 774.364ZM1149.37 1138V1139H1151.18L1150.21 1137.47L1149.37 1138ZM1045.67 1138L1044.83 1138.53L1045.12 1139H1045.67V1138ZM858.174 841.125L859.019 840.591L858.725 840.125H858.174V841.125ZM852.492 841.125V840.125H851.941L851.646 840.591L852.492 841.125ZM664.992 1138V1139H665.543L665.837 1138.53L664.992 1138ZM561.299 1138L560.458 1137.46L559.465 1139H561.299V1138ZM795.674 774.364L796.514 774.905L796.863 774.364L796.514 773.822L795.674 774.364ZM561.299 410.727V409.727H559.465L560.458 411.269L561.299 410.727ZM664.142 411.254L851.642 713.811L853.342 712.757L665.842 410.2L664.142 411.254ZM852.492 714.284H858.174V712.284H852.492V714.284ZM859.024 713.811L1046.52 411.254L1044.82 410.2L857.324 712.757L859.024 713.811ZM1045.67 411.727H1149.37V409.727H1045.67V411.727ZM1148.52 410.195L919.827 773.831L921.52 774.896L1150.21 411.26L1148.52 410.195ZM919.827 774.896L1148.52 1138.53L1150.21 1137.47L921.52 773.831L919.827 774.896ZM1149.37 1137H1045.67V1139H1149.37V1137ZM1046.52 1137.47L859.019 840.591L857.328 841.659L1044.83 1138.53L1046.52 1137.47ZM858.174 840.125H852.492V842.125H858.174V840.125ZM851.646 840.591L664.146 1137.47L665.837 1138.53L853.337 841.659L851.646 840.591ZM664.992 1137H561.299V1139H664.992V1137ZM562.139 1138.54L796.514 774.905L794.833 773.822L560.458 1137.46L562.139 1138.54ZM796.514 773.822L562.139 410.185L560.458 411.269L794.833 774.905L796.514 773.822ZM561.299 411.727H664.992V409.727H561.299V411.727Z" fill="white" mask="url(#path-7-outside-3_460_22)"/>
</svg>
